<svg xmlns="http://www.w3.org/2000/svg" width="13.21" height="13.21" viewBox="0 0 13.21 13.21"><defs><style>.a{fill:#fff;fill-rule:evenodd;}</style></defs><g transform="translate(0)"><path class="a" d="M610.757,172.283a24.386,24.386,0,0,0-1.1-4.028,8.178,8.178,0,0,1,3.515.246,5.642,5.642,0,0,1-2.417,3.782Zm-3.152.963a5.619,5.619,0,0,1-3.594-1.293c.075.061.127.1.127.1a7.643,7.643,0,0,1,4.426-3.524l.038-.012a23.468,23.468,0,0,1,1.2,4.282,5.622,5.622,0,0,1-2.2.447Zm-5.641-5.641c0-.06,0-.119,0-.178a20.681,20.681,0,0,0,5.791-.8c.162.316.316.638.458.959-.075.02-.148.043-.222.068a8.922,8.922,0,0,0-4.588,3.722l0,0a5.619,5.619,0,0,1-1.445-3.77Zm3.234-5.1a33.725,33.725,0,0,1,2.095,3.249,20.864,20.864,0,0,1-5.208.689A5.643,5.643,0,0,1,605.2,162.5Zm1.056-.376v0l-.017,0,.018,0Zm5.077,1.244a6.148,6.148,0,0,1-2.947,2.042,28.648,28.648,0,0,0-2.108-3.291,5.632,5.632,0,0,1,5.055,1.249Zm1.914,4.176a13.047,13.047,0,0,0-3.929-.185c-.041-.1-.08-.193-.122-.29-.117-.276-.244-.55-.375-.819a7.256,7.256,0,0,0,3.143-2.232,5.618,5.618,0,0,1,1.283,3.526Zm.832-1.273a6.624,6.624,0,0,0-.386-1.242,6.525,6.525,0,0,0-.609-1.121,6.605,6.605,0,0,0-10.952,0,6.58,6.58,0,0,0-.995,2.363,6.683,6.683,0,0,0,0,2.66,6.612,6.612,0,0,0,.995,2.363,6.6,6.6,0,0,0,1.783,1.782,6.616,6.616,0,0,0,1.122.609,6.5,6.5,0,0,0,1.241.384,6.613,6.613,0,0,0,2.66,0,6.505,6.505,0,0,0,1.241-.384,6.582,6.582,0,0,0,1.122-.609,6.594,6.594,0,0,0,1.783-1.782,6.614,6.614,0,0,0,.995-2.363,6.686,6.686,0,0,0,0-2.66Z" transform="translate(-601 -161)"/></g></svg>