<svg xmlns="http://www.w3.org/2000/svg" width="14.218" height="12.925" viewBox="0 0 14.218 12.925"><defs><style>.a{fill:#fff;fill-rule:evenodd;}</style></defs><g transform="translate(0)"><path class="a" d="M716.218,277.925h-3.142v-4.544c0-1.189-.492-2-1.572-2a1.586,1.586,0,0,0-1.5,1.076,2,2,0,0,0-.068.718v4.751h-3.113s.04-8.049,0-8.78h3.113v1.378a2.846,2.846,0,0,1,2.766-1.462c1.969,0,3.517,1.263,3.517,3.983v4.882Zm-12.544-9.879h-.02A1.532,1.532,0,0,1,702,266.524a1.69,1.69,0,1,1,1.674,1.522Zm-1.315,1.1h2.771v8.78h-2.771v-8.78Z" transform="translate(-702 -265)"/></g></svg>