<svg xmlns="http://www.w3.org/2000/svg" width="15.851" height="13.209" viewBox="0 0 15.851 13.209"><defs><style>.a{fill:#3b18ad;fill-rule:evenodd;}</style></defs><path class="a" d="M315.851,165.564a6.352,6.352,0,0,1-1.867.525,3.327,3.327,0,0,0,1.43-1.844,6.405,6.405,0,0,1-2.066.808A3.207,3.207,0,0,0,310.974,164a3.294,3.294,0,0,0-3.251,3.335,3.4,3.4,0,0,0,.084.759,9.156,9.156,0,0,1-6.7-3.485,3.4,3.4,0,0,0-.44,1.678,3.357,3.357,0,0,0,1.447,2.775,3.193,3.193,0,0,1-1.474-.416v.041a3.315,3.315,0,0,0,2.61,3.27,3.1,3.1,0,0,1-.857.117,3.158,3.158,0,0,1-.612-.059,3.264,3.264,0,0,0,3.038,2.315,6.421,6.421,0,0,1-4.039,1.428,6.508,6.508,0,0,1-.776-.046,9.055,9.055,0,0,0,4.985,1.5,9.316,9.316,0,0,0,9.253-9.488c0-.145,0-.29-.008-.432a6.675,6.675,0,0,0,1.622-1.726" transform="translate(-300 -164)"/></svg>