<svg xmlns="http://www.w3.org/2000/svg" width="21.135" height="13.209" viewBox="0 0 21.135 13.209"><defs><style>.a{fill:#3b18ad;fill-rule:evenodd;}</style></defs><g transform="translate(0)"><path class="a" d="M713.505,171.2h5.6v-1.6h-5.6v1.6Zm1.326,3.5a2.578,2.578,0,0,0-.674,1.475h4.353a2.081,2.081,0,0,0-.672-1.507,2.242,2.242,0,0,0-1.5-.512,2.021,2.021,0,0,0-1.507.544Zm3.778-2.153a3.887,3.887,0,0,1,1.668,1.41,4.6,4.6,0,0,1,.772,1.97,12.09,12.09,0,0,1,.084,1.892H714.1a2.278,2.278,0,0,0,1.012,2.009,2.589,2.589,0,0,0,1.393.359,2.16,2.16,0,0,0,1.4-.436,2.076,2.076,0,0,0,.521-.656H721a3.119,3.119,0,0,1-.936,1.722,4.73,4.73,0,0,1-3.634,1.389,5.3,5.3,0,0,1-3.4-1.172,4.578,4.578,0,0,1-1.475-3.814,5.127,5.127,0,0,1,1.33-3.8,4.7,4.7,0,0,1,3.453-1.322,5.557,5.557,0,0,1,2.272.447ZM702.6,176.212v3.436h3.171a3.131,3.131,0,0,0,1.323-.227,1.619,1.619,0,0,0,.859-1.608,1.381,1.381,0,0,0-.831-1.383,3.34,3.34,0,0,0-1.306-.218Zm0-4.975v2.843h3.176a2.659,2.659,0,0,0,1.382-.32,1.213,1.213,0,0,0,.531-1.13,1.156,1.156,0,0,0-.7-1.192,5.011,5.011,0,0,0-1.545-.2Zm7.093-.864a3.249,3.249,0,0,1,.6,1.966,2.844,2.844,0,0,1-.6,1.9,3.13,3.13,0,0,1-1,.733,2.928,2.928,0,0,1,1.51,1.138,3.379,3.379,0,0,1,.508,1.888,3.72,3.72,0,0,1-.583,2.055,3.581,3.581,0,0,1-.925,1.014,3.622,3.622,0,0,1-1.475.647,9.18,9.18,0,0,1-1.845.173H700V169h6.311a4.028,4.028,0,0,1,3.385,1.373Z" transform="translate(-700 -169)"/></g></svg>