<svg width="25" height="25" viewBox="0 0 25 25" fill="none" xmlns="http://www.w3.org/2000/svg">
<path d="M16.625 12.5008L24.3591 4.76671C25.2136 3.91217 25.2136 2.52676 24.3591 1.67356L23.328 0.642505C22.4732 -0.212299 21.0878 -0.212299 20.2346 0.642505L12.5008 8.37633L4.76671 0.640902C3.91217 -0.213634 2.52676 -0.213634 1.67356 0.640902L0.640902 1.67195C-0.213634 2.52676 -0.213634 3.91217 0.640902 4.76538L8.37633 12.5008L0.642505 20.2346C-0.212299 21.0894 -0.212299 22.4748 0.642505 23.328L1.67356 24.3591C2.52809 25.2136 3.91351 25.2136 4.76671 24.3591L12.5008 16.625L20.2346 24.3591C21.0894 25.2136 22.4748 25.2136 23.328 24.3591L24.3591 23.328C25.2136 22.4732 25.2136 21.0878 24.3591 20.2346L16.625 12.5008Z" fill="black"/>
</svg>
