<svg width="15" height="15" viewBox="0 0 15 15" fill="none" xmlns="http://www.w3.org/2000/svg">
<path d="M9.975 7.50048L14.6155 2.86003C15.1282 2.3473 15.1282 1.51605 14.6155 1.00413L13.9968 0.385503C13.4839 -0.127379 12.6527 -0.127379 12.1408 0.385503L7.50048 5.0258L2.86003 0.384541C2.3473 -0.12818 1.51605 -0.12818 1.00413 0.384541L0.384541 1.00317C-0.12818 1.51605 -0.12818 2.3473 0.384541 2.85923L5.0258 7.50048L0.385503 12.1408C-0.127379 12.6537 -0.127379 13.4849 0.385503 13.9968L1.00413 14.6155C1.51686 15.1282 2.34811 15.1282 2.86003 14.6155L7.50048 9.975L12.1408 14.6155C12.6537 15.1282 13.4849 15.1282 13.9968 14.6155L14.6155 13.9968C15.1282 13.4839 15.1282 12.6527 14.6155 12.1408L9.975 7.50048Z" fill="#A3A3A3"/>
</svg>
