<svg xmlns="http://www.w3.org/2000/svg" width="54.302" height="72.403" viewBox="0 0 54.302 72.403"><defs><style>.a{fill:#004cc6;}</style></defs><path class="a" d="M51.269,0H9.034A6.034,6.034,0,0,0,3,6.034V66.369A6.034,6.034,0,0,0,9.034,72.4H42.218A15.084,15.084,0,0,0,57.3,57.319V6.034A6.034,6.034,0,0,0,51.269,0ZM19.592,57.319H16.576a1.508,1.508,0,0,1-1.508-1.508V51.286H10.542a1.508,1.508,0,0,1-1.508-1.508V46.76a1.508,1.508,0,0,1,1.508-1.508h4.525V40.727a1.508,1.508,0,0,1,1.508-1.508h3.017A1.508,1.508,0,0,1,21.1,40.727v4.525h4.525a1.508,1.508,0,0,1,1.508,1.508v3.017a1.508,1.508,0,0,1-1.508,1.508H21.1v4.525A1.508,1.508,0,0,1,19.592,57.319Zm9.714,4.374L26.29,63.2a1.508,1.508,0,0,1-1.358-2.685l3.017-1.508a1.508,1.508,0,1,1,1.358,2.685Zm6.034,0L32.323,63.2a1.508,1.508,0,0,1-1.358-2.685l3.017-1.508a1.508,1.508,0,1,1,1.358,2.685ZM39.2,54.3a3.017,3.017,0,1,1,3.017-3.017A3.017,3.017,0,0,1,39.2,54.3Zm9.05-6.034a3.017,3.017,0,1,1,3.017-3.017A3.017,3.017,0,0,1,48.252,48.269Zm3.017-16.592A4.525,4.525,0,0,1,46.744,36.2h-36.2a1.508,1.508,0,0,1-1.508-1.508V7.542a1.508,1.508,0,0,1,1.508-1.508H49.76a1.508,1.508,0,0,1,1.508,1.508Z" transform="translate(-3)"/></svg>