<svg xmlns="http://www.w3.org/2000/svg" width="72.845" height="72.845" viewBox="0 0 72.845 72.845"><defs><style>.a{fill:#ad186e;}</style></defs><g transform="translate(0 0)"><rect class="a" width="10" height="17" rx="0.5" transform="translate(13 23.138)"/><rect class="a" width="9.933" height="21.522" rx="0.5" transform="translate(31.456 18.211)"/><rect class="a" width="11" height="28" rx="0.5" transform="translate(49 12.138)"/><path class="a" d="M70.534,1H4.311A3.311,3.311,0,0,0,1,4.311V47.356a6.622,6.622,0,0,0,6.622,6.622H35.767V67.72a3.312,3.312,0,1,0,3.311,0V53.978H67.223a6.622,6.622,0,0,0,6.622-6.622V4.311A3.311,3.311,0,0,0,70.534,1ZM7.622,47.356V7.622h59.6V47.356Z" transform="translate(-1 -1)"/></g></svg>