<svg xmlns="http://www.w3.org/2000/svg" width="16.544" height="13.209" viewBox="0 0 16.544 13.209"><defs><style>.a{fill:#3b18ad;fill-rule:evenodd;}</style></defs><g transform="translate(0 0)"><path class="a" d="M31.275,2.551a.051.051,0,0,0-.009-.008l-.006,0L26.359.109a.51.51,0,0,0-.1-.037.548.548,0,0,0-.135-.018.562.562,0,0,0-.476.257L22.823,4.862l3.541,5.712L31.29,2.629a.059.059,0,0,0-.015-.078" transform="translate(-14.781 -0.054)"/><path class="a" d="M18.29,11.053v5.181l4.64,2.3-4.64-7.484" transform="translate(-11.94 -7.551)"/><path class="a" d="M33.855,19.3l3.819,1.9c.5.247.9.074.9-.386V11.689L33.855,19.3" transform="translate(-22.031 -8.14)"/><path class="a" d="M5.616,2.606.829.307A.567.567,0,0,0,.585.246C.376.246.229.4.229.663V10.59a.855.855,0,0,0,.45.7L4.9,13.313a.708.708,0,0,0,.3.076c.262,0,.446-.195.446-.522V2.651a.05.05,0,0,0-.029-.045" transform="translate(-0.229 -0.18)"/></g></svg>