<svg xmlns="http://www.w3.org/2000/svg" width="93.839" height="87.414" viewBox="0 0 93.839 87.414"><defs><style>.a{fill:#ccfff7;}.b{fill:#008b76;}.c{fill:none;}</style></defs><g transform="translate(0.254)"><circle class="a" cx="30" cy="30" r="30" transform="translate(-0.254 23.707)"/><g transform="translate(6.17)"><path class="b" d="M64.276,4H13.285A7.283,7.283,0,0,0,6,11.285V62.276a7.283,7.283,0,0,0,7.285,7.285H27.854L38.78,80.488,49.707,69.561H64.276a7.283,7.283,0,0,0,7.285-7.285V11.285A7.283,7.283,0,0,0,64.276,4ZM38.78,16.019a9.834,9.834,0,1,1-9.834,9.834A9.84,9.84,0,0,1,38.78,16.019ZM60.634,54.992H16.927V51.714c0-7.285,14.569-11.291,21.854-11.291s21.854,4.006,21.854,11.291Z" transform="translate(4.927 3.285)"/><path class="c" d="M0,0H87.414V87.414H0Z"/></g></g></svg>