<svg xmlns="http://www.w3.org/2000/svg" width="72.895" height="72.838" viewBox="0 0 72.895 72.838"><defs><style>.a{fill:#7301d5;}</style></defs><g transform="translate(0)"><g transform="translate(0 0)"><path class="a" d="M32,28.265a1.654,1.654,0,0,0,2.349,0l6.087-6.054a6.616,6.616,0,0,0,0-9.362L30.508,2.924a6.616,6.616,0,0,0-9.362,0l-6.054,6.12a1.654,1.654,0,0,0,0,2.349Z" transform="translate(30.484 -0.983)"/><path class="a" d="M56.474,37.386l4.631-4.565a1.654,1.654,0,0,0,0-2.349L55.018,24.45a1.687,1.687,0,0,0-2.349,0L21.208,55.912a1.654,1.654,0,0,0,.43,2.647l2.58,1.29v4.334l-7.907,2.25L8.306,58.459l2.283-7.84h4.334l1.29,2.58a1.654,1.654,0,0,0,1.224.893H17.6a1.654,1.654,0,0,0,1.158-.5L50.221,22.135a1.654,1.654,0,0,0,0-2.349L44.233,13.7a1.654,1.654,0,0,0-1.158-.5h0a1.654,1.654,0,0,0-1.158.5l-4.466,4.6L20.48,1.491a1.654,1.654,0,0,0-2.349,0L1.591,18.032a1.654,1.654,0,0,0,0,2.349l2.779,2.613a1.654,1.654,0,0,0,2.349,0l6.616-6.616a1.687,1.687,0,0,1,2.349,0,1.654,1.654,0,0,1,0,2.349L9.067,25.344a1.654,1.654,0,0,0,0,2.349l1.919,1.919a1.654,1.654,0,0,0,2.349,0l6.616-6.616a1.687,1.687,0,0,1,2.349,0,1.654,1.654,0,0,1,0,2.349L15.684,31.96a1.654,1.654,0,0,0,0,2.349l3.01,3.01L8.174,47.74h0a1.621,1.621,0,0,0-.4.662L4.9,58.327,1.061,71.593a1.654,1.654,0,0,0,1.654,2.183h.463l13.233-3.738,9.925-2.878h.3l.265-.165h0L37.452,56.242l3.077,3.077a1.654,1.654,0,0,0,2.349,0L49.494,52.7a1.687,1.687,0,0,1,2.349,0,1.654,1.654,0,0,1,0,2.349l-6.616,6.616a1.654,1.654,0,0,0,0,2.349l1.952,1.952a1.654,1.654,0,0,0,2.349,0l6.616-6.616a1.687,1.687,0,0,1,2.349,0,1.654,1.654,0,0,1,0,2.349l-6.616,6.616a1.654,1.654,0,0,0,0,2.349l2.613,2.613a1.654,1.654,0,0,0,2.349,0L73.379,56.739a1.654,1.654,0,0,0,0-2.349Z" transform="translate(-0.973 -0.94)"/></g></g></svg>