<svg xmlns="http://www.w3.org/2000/svg" width="15.221" height="13.197" viewBox="0 0 15.221 13.197"><defs><style>.a{fill:#6f6d74;}</style></defs><g transform="translate(0 -2)"><g transform="translate(0 3.32)"><g transform="translate(0 0)"><path class="a" d="M11.416,15.877H2.537A2.6,2.6,0,0,1,0,13.238v-6.6A2.6,2.6,0,0,1,2.537,4H9.513a.612.612,0,0,1,.634.66.612.612,0,0,1-.634.66H2.537a1.3,1.3,0,0,0-1.268,1.32v6.6a1.3,1.3,0,0,0,1.268,1.32h8.879a1.3,1.3,0,0,0,1.268-1.32V8.619a.635.635,0,1,1,1.268,0v4.619A2.6,2.6,0,0,1,11.416,15.877Z" transform="translate(0 -4)"/></g></g><g transform="translate(8.879 2)"><path class="a" d="M14.634,8.6a.566.566,0,0,1-.444-.2.656.656,0,0,1,0-.924L19.264,2.2a.6.6,0,0,1,.888,0,.656.656,0,0,1,0,.924L15.078,8.4A.566.566,0,0,1,14.634,8.6Z" transform="translate(-14 -2)"/></g><g transform="translate(11.416 2)"><g transform="translate(0 0)"><path class="a" d="M21.171,3.32H18.634A.612.612,0,0,1,18,2.66.612.612,0,0,1,18.634,2h2.537a.612.612,0,0,1,.634.66A.612.612,0,0,1,21.171,3.32Z" transform="translate(-18 -2)"/></g></g><g transform="translate(13.953 2)"><g transform="translate(0 0)"><path class="a" d="M22.634,5.959A.612.612,0,0,1,22,5.3V2.66a.635.635,0,1,1,1.268,0V5.3A.612.612,0,0,1,22.634,5.959Z" transform="translate(-22 -2)"/></g></g></g></svg>